<mxfile host="app.diagrams.net" modified="2021-08-17T02:46:04.832Z" agent="5.0 (Windows NT 10.0; Win64; x64) AppleWebKit/537.36 (KHTML, like Gecko) Chrome/92.0.4515.159 Safari/537.36" etag="-qm-Szg8TSTkkyCjQzUI" version="14.9.7" type="github">
  <diagram id="BP_4QGGFx2uj5hWdyBfl" name="Page-1">
    <mxGraphModel dx="1422" dy="794" grid="1" gridSize="10" guides="1" tooltips="1" connect="1" arrows="1" fold="1" page="1" pageScale="1" pageWidth="850" pageHeight="1100" math="0" shadow="0">
      <root>
        <mxCell id="0" />
        <mxCell id="1" parent="0" />
        <mxCell id="sXfwi4x87LNBnSrheW1v-1" value="" style="rounded=0;whiteSpace=wrap;html=1;fillColor=#f5f5f5;strokeColor=#666666;fontColor=#333333;" parent="1" vertex="1">
          <mxGeometry x="110" y="280" width="450" height="430" as="geometry" />
        </mxCell>
        <mxCell id="sXfwi4x87LNBnSrheW1v-2" value="Home" style="rounded=0;whiteSpace=wrap;html=1;fontStyle=1;fillColor=#ffe6cc;strokeColor=#d79b00;" parent="1" vertex="1">
          <mxGeometry x="110" y="330" width="80" height="40" as="geometry" />
        </mxCell>
        <mxCell id="sXfwi4x87LNBnSrheW1v-3" value="Random" style="rounded=0;whiteSpace=wrap;html=1;fontStyle=1;fillColor=#ffe6cc;strokeColor=#d79b00;" parent="1" vertex="1">
          <mxGeometry x="190" y="330" width="80" height="40" as="geometry" />
        </mxCell>
        <mxCell id="sXfwi4x87LNBnSrheW1v-4" value="&lt;b&gt;Gallery&lt;/b&gt;" style="rounded=0;whiteSpace=wrap;html=1;fillColor=#ffe6cc;strokeColor=#d79b00;" parent="1" vertex="1">
          <mxGeometry x="270" y="330" width="130" height="40" as="geometry" />
        </mxCell>
        <mxCell id="sXfwi4x87LNBnSrheW1v-5" value="&lt;b&gt;UNESCO?&lt;/b&gt;" style="rounded=0;whiteSpace=wrap;html=1;fillColor=#ffe6cc;strokeColor=#d79b00;" parent="1" vertex="1">
          <mxGeometry x="400" y="330" width="80" height="40" as="geometry" />
        </mxCell>
        <mxCell id="sXfwi4x87LNBnSrheW1v-6" value="Contact" style="rounded=0;whiteSpace=wrap;html=1;fontStyle=1;fillColor=#ffe6cc;strokeColor=#d79b00;" parent="1" vertex="1">
          <mxGeometry x="480" y="330" width="80" height="40" as="geometry" />
        </mxCell>
        <mxCell id="sXfwi4x87LNBnSrheW1v-7" value="&lt;b&gt;&lt;font style=&quot;font-size: 17px&quot;&gt;World Heritage Sites&lt;/font&gt;&lt;/b&gt;" style="text;html=1;strokeColor=none;fillColor=none;align=center;verticalAlign=middle;whiteSpace=wrap;rounded=0;" parent="1" vertex="1">
          <mxGeometry x="250" y="290" width="170" height="40" as="geometry" />
        </mxCell>
        <mxCell id="sXfwi4x87LNBnSrheW1v-9" value="" style="rounded=1;whiteSpace=wrap;html=1;" parent="1" vertex="1">
          <mxGeometry x="270" y="370" width="130" height="130" as="geometry" />
        </mxCell>
        <mxCell id="sXfwi4x87LNBnSrheW1v-10" value="Africa&lt;span style=&quot;color: rgba(0 , 0 , 0 , 0) ; font-family: monospace ; font-size: 0px&quot;&gt;%3CmxGraphModel%3E%3Croot%3E%3CmxCell%20id%3D%220%22%2F%3E%3CmxCell%20id%3D%221%22%20parent%3D%220%22%2F%3E%3CmxCell%20id%3D%222%22%20value%3D%22%22%20style%3D%22rounded%3D0%3BwhiteSpace%3Dwrap%3Bhtml%3D1%3B%22%20vertex%3D%221%22%20parent%3D%221%22%3E%3CmxGeometry%20x%3D%22110%22%20y%3D%22330%22%20width%3D%2280%22%20height%3D%2240%22%20as%3D%22geometry%22%2F%3E%3C%2FmxCell%3E%3C%2Froot%3E%3C%2FmxGraphModel%3E&lt;/span&gt;" style="text;html=1;strokeColor=none;fillColor=none;align=center;verticalAlign=middle;whiteSpace=wrap;rounded=0;" parent="1" vertex="1">
          <mxGeometry x="270" y="375" width="130" height="20" as="geometry" />
        </mxCell>
        <mxCell id="sXfwi4x87LNBnSrheW1v-11" value="Asia" style="text;html=1;strokeColor=none;fillColor=none;align=center;verticalAlign=middle;whiteSpace=wrap;rounded=0;" parent="1" vertex="1">
          <mxGeometry x="270" y="395" width="130" height="20" as="geometry" />
        </mxCell>
        <mxCell id="sXfwi4x87LNBnSrheW1v-12" value="Europe" style="text;html=1;align=center;verticalAlign=middle;whiteSpace=wrap;rounded=0;" parent="1" vertex="1">
          <mxGeometry x="270" y="415" width="130" height="20" as="geometry" />
        </mxCell>
        <mxCell id="sXfwi4x87LNBnSrheW1v-13" value="North America&lt;span style=&quot;color: rgba(0 , 0 , 0 , 0) ; font-family: monospace ; font-size: 0px&quot;&gt;%3CmxGraphModel%3E%3Croot%3E%3CmxCell%20id%3D%220%22%2F%3E%3CmxCell%20id%3D%221%22%20parent%3D%220%22%2F%3E%3CmxCell%20id%3D%222%22%20value%3D%22Africa%26lt%3Bspan%20style%3D%26quot%3Bcolor%3A%20rgba(0%20%2C%200%20%2C%200%20%2C%200)%20%3B%20font-family%3A%20monospace%20%3B%20font-size%3A%200px%26quot%3B%26gt%3B%253CmxGraphModel%253E%253Croot%253E%253CmxCell%2520id%253D%25220%2522%252F%253E%253CmxCell%2520id%253D%25221%2522%2520parent%253D%25220%2522%252F%253E%253CmxCell%2520id%253D%25222%2522%2520value%253D%2522%2522%2520style%253D%2522rounded%253D0%253BwhiteSpace%253Dwrap%253Bhtml%253D1%253B%2522%2520vertex%253D%25221%2522%2520parent%253D%25221%2522%253E%253CmxGeometry%2520x%253D%2522110%2522%2520y%253D%2522330%2522%2520width%253D%252280%2522%2520height%253D%252240%2522%2520as%253D%2522geometry%2522%252F%253E%253C%252FmxCell%253E%253C%252Froot%253E%253C%252FmxGraphModel%253E%26lt%3B%2Fspan%26gt%3B%22%20style%3D%22text%3Bhtml%3D1%3BstrokeColor%3Dnone%3BfillColor%3Dnone%3Balign%3Dcenter%3BverticalAlign%3Dmiddle%3BwhiteSpace%3Dwrap%3Brounded%3D0%3B%22%20vertex%3D%221%22%20parent%3D%221%22%3E%3CmxGeometry%20x%3D%22270%22%20y%3D%22380%22%20width%3D%2280%22%20height%3D%2220%22%20as%3D%22geometry%22%2F%3E%3C%2FmxCell%3E%3C%2Froot%3E%3C%2FmxGraphModel%3E&lt;/span&gt;" style="text;html=1;strokeColor=none;fillColor=none;align=center;verticalAlign=middle;whiteSpace=wrap;rounded=0;" parent="1" vertex="1">
          <mxGeometry x="270" y="435" width="130" height="20" as="geometry" />
        </mxCell>
        <mxCell id="sXfwi4x87LNBnSrheW1v-14" value="Oceania" style="text;html=1;strokeColor=none;fillColor=none;align=center;verticalAlign=middle;whiteSpace=wrap;rounded=0;" parent="1" vertex="1">
          <mxGeometry x="270" y="455" width="130" height="20" as="geometry" />
        </mxCell>
        <mxCell id="sXfwi4x87LNBnSrheW1v-15" value="South America" style="text;html=1;strokeColor=none;fillColor=none;align=center;verticalAlign=middle;whiteSpace=wrap;rounded=0;" parent="1" vertex="1">
          <mxGeometry x="270" y="475" width="130" height="20" as="geometry" />
        </mxCell>
        <mxCell id="sXfwi4x87LNBnSrheW1v-16" value="" style="shape=image;verticalLabelPosition=bottom;labelBackgroundColor=#ffffff;verticalAlign=top;aspect=fixed;imageAspect=0;image=https://upload.wikimedia.org/wikipedia/commons/thumb/b/bc/UNESCO_logo.svg/2560px-UNESCO_logo.svg.png;" parent="1" vertex="1">
          <mxGeometry x="118.43" y="280" width="63.15" height="47" as="geometry" />
        </mxCell>
        <mxCell id="sXfwi4x87LNBnSrheW1v-17" value="" style="rounded=0;whiteSpace=wrap;html=1;fillColor=#f5f5f5;strokeColor=#666666;fontColor=#333333;" parent="1" vertex="1">
          <mxGeometry x="118.43" y="776" width="150" height="270" as="geometry" />
        </mxCell>
        <mxCell id="sXfwi4x87LNBnSrheW1v-18" value="&lt;span style=&quot;font-size: 17px&quot;&gt;&lt;b&gt;Africa&lt;/b&gt;&lt;/span&gt;" style="text;html=1;strokeColor=none;fillColor=none;align=center;verticalAlign=middle;whiteSpace=wrap;rounded=0;" parent="1" vertex="1">
          <mxGeometry x="133.43" y="806" width="120" height="40" as="geometry" />
        </mxCell>
        <mxCell id="sXfwi4x87LNBnSrheW1v-19" value="" style="rounded=0;whiteSpace=wrap;html=1;" parent="1" vertex="1">
          <mxGeometry x="238.43" y="776" width="30" height="30" as="geometry" />
        </mxCell>
        <mxCell id="sXfwi4x87LNBnSrheW1v-21" value="" style="endArrow=none;html=1;" parent="1" edge="1">
          <mxGeometry width="50" height="50" relative="1" as="geometry">
            <mxPoint x="243.43" y="784" as="sourcePoint" />
            <mxPoint x="263.43" y="784" as="targetPoint" />
            <Array as="points">
              <mxPoint x="263.43" y="784" />
            </Array>
          </mxGeometry>
        </mxCell>
        <mxCell id="sXfwi4x87LNBnSrheW1v-23" value="" style="endArrow=none;html=1;" parent="1" edge="1">
          <mxGeometry width="50" height="50" relative="1" as="geometry">
            <mxPoint x="243.43" y="791" as="sourcePoint" />
            <mxPoint x="263.43" y="791" as="targetPoint" />
            <Array as="points">
              <mxPoint x="263.43" y="791" />
            </Array>
          </mxGeometry>
        </mxCell>
        <mxCell id="sXfwi4x87LNBnSrheW1v-24" value="" style="endArrow=none;html=1;" parent="1" edge="1">
          <mxGeometry width="50" height="50" relative="1" as="geometry">
            <mxPoint x="243.43" y="798" as="sourcePoint" />
            <mxPoint x="263.43" y="798" as="targetPoint" />
            <Array as="points">
              <mxPoint x="263.43" y="798" />
            </Array>
          </mxGeometry>
        </mxCell>
        <mxCell id="sXfwi4x87LNBnSrheW1v-25" value="" style="rounded=0;whiteSpace=wrap;html=1;fillColor=none;" parent="1" vertex="1">
          <mxGeometry x="133.43" y="846" width="120" height="60" as="geometry" />
        </mxCell>
        <mxCell id="sXfwi4x87LNBnSrheW1v-26" value="" style="endArrow=none;html=1;exitX=0;exitY=1;exitDx=0;exitDy=0;" parent="1" source="sXfwi4x87LNBnSrheW1v-25" edge="1">
          <mxGeometry width="50" height="50" relative="1" as="geometry">
            <mxPoint x="203.43" y="896" as="sourcePoint" />
            <mxPoint x="253.43" y="846" as="targetPoint" />
          </mxGeometry>
        </mxCell>
        <mxCell id="sXfwi4x87LNBnSrheW1v-27" value="" style="endArrow=none;html=1;exitX=0;exitY=0;exitDx=0;exitDy=0;entryX=1;entryY=1;entryDx=0;entryDy=0;" parent="1" source="sXfwi4x87LNBnSrheW1v-25" target="sXfwi4x87LNBnSrheW1v-25" edge="1">
          <mxGeometry width="50" height="50" relative="1" as="geometry">
            <mxPoint x="143.43" y="916" as="sourcePoint" />
            <mxPoint x="263.43" y="856" as="targetPoint" />
          </mxGeometry>
        </mxCell>
        <mxCell id="sXfwi4x87LNBnSrheW1v-29" value="" style="rounded=0;whiteSpace=wrap;html=1;fillColor=none;" parent="1" vertex="1">
          <mxGeometry x="133.43" y="926" width="120" height="60" as="geometry" />
        </mxCell>
        <mxCell id="sXfwi4x87LNBnSrheW1v-30" value="" style="endArrow=none;html=1;exitX=0;exitY=1;exitDx=0;exitDy=0;" parent="1" source="sXfwi4x87LNBnSrheW1v-29" edge="1">
          <mxGeometry width="50" height="50" relative="1" as="geometry">
            <mxPoint x="203.43" y="976" as="sourcePoint" />
            <mxPoint x="253.43" y="926" as="targetPoint" />
          </mxGeometry>
        </mxCell>
        <mxCell id="sXfwi4x87LNBnSrheW1v-31" value="" style="endArrow=none;html=1;exitX=0;exitY=0;exitDx=0;exitDy=0;entryX=1;entryY=1;entryDx=0;entryDy=0;" parent="1" source="sXfwi4x87LNBnSrheW1v-29" target="sXfwi4x87LNBnSrheW1v-29" edge="1">
          <mxGeometry width="50" height="50" relative="1" as="geometry">
            <mxPoint x="143.43" y="996" as="sourcePoint" />
            <mxPoint x="263.43" y="936" as="targetPoint" />
          </mxGeometry>
        </mxCell>
        <mxCell id="dHxH4tFSceXlwzy47N7y-1" value="" style="shape=image;verticalLabelPosition=bottom;labelBackgroundColor=#ffffff;verticalAlign=top;aspect=fixed;imageAspect=0;image=https://upload.wikimedia.org/wikipedia/commons/thumb/b/bc/UNESCO_logo.svg/2560px-UNESCO_logo.svg.png;" vertex="1" parent="1">
          <mxGeometry x="120.43" y="778" width="45.68" height="34" as="geometry" />
        </mxCell>
        <mxCell id="dHxH4tFSceXlwzy47N7y-9" value="" style="rounded=0;whiteSpace=wrap;html=1;fillColor=#f5f5f5;strokeColor=#666666;fontColor=#333333;" vertex="1" parent="1">
          <mxGeometry x="295" y="776" width="450" height="430" as="geometry" />
        </mxCell>
        <mxCell id="dHxH4tFSceXlwzy47N7y-10" value="Home" style="rounded=0;whiteSpace=wrap;html=1;fontStyle=1;fillColor=#ffe6cc;strokeColor=#d79b00;" vertex="1" parent="1">
          <mxGeometry x="295" y="826" width="80" height="40" as="geometry" />
        </mxCell>
        <mxCell id="dHxH4tFSceXlwzy47N7y-11" value="Random" style="rounded=0;whiteSpace=wrap;html=1;fontStyle=1;fillColor=#ffe6cc;strokeColor=#d79b00;" vertex="1" parent="1">
          <mxGeometry x="375" y="826" width="80" height="40" as="geometry" />
        </mxCell>
        <mxCell id="dHxH4tFSceXlwzy47N7y-12" value="&lt;b&gt;Gallery&lt;/b&gt;" style="rounded=0;whiteSpace=wrap;html=1;fillColor=#ffe6cc;strokeColor=#d79b00;" vertex="1" parent="1">
          <mxGeometry x="455" y="826" width="130" height="40" as="geometry" />
        </mxCell>
        <mxCell id="dHxH4tFSceXlwzy47N7y-13" value="&lt;b&gt;UNESCO?&lt;/b&gt;" style="rounded=0;whiteSpace=wrap;html=1;fillColor=#ffe6cc;strokeColor=#d79b00;" vertex="1" parent="1">
          <mxGeometry x="585" y="826" width="80" height="40" as="geometry" />
        </mxCell>
        <mxCell id="dHxH4tFSceXlwzy47N7y-14" value="Contact" style="rounded=0;whiteSpace=wrap;html=1;fontStyle=1;fillColor=#ffe6cc;strokeColor=#d79b00;" vertex="1" parent="1">
          <mxGeometry x="665" y="826" width="80" height="40" as="geometry" />
        </mxCell>
        <mxCell id="dHxH4tFSceXlwzy47N7y-15" value="&lt;b&gt;&lt;font style=&quot;font-size: 17px&quot;&gt;World Heritage Sites&lt;/font&gt;&lt;/b&gt;" style="text;html=1;strokeColor=none;fillColor=none;align=center;verticalAlign=middle;whiteSpace=wrap;rounded=0;" vertex="1" parent="1">
          <mxGeometry x="435" y="786" width="170" height="40" as="geometry" />
        </mxCell>
        <mxCell id="dHxH4tFSceXlwzy47N7y-23" value="" style="shape=image;verticalLabelPosition=bottom;labelBackgroundColor=#ffffff;verticalAlign=top;aspect=fixed;imageAspect=0;image=https://upload.wikimedia.org/wikipedia/commons/thumb/b/bc/UNESCO_logo.svg/2560px-UNESCO_logo.svg.png;" vertex="1" parent="1">
          <mxGeometry x="303.43" y="776" width="63.15" height="47" as="geometry" />
        </mxCell>
        <mxCell id="dHxH4tFSceXlwzy47N7y-24" value="&lt;font style=&quot;font-size: 15px&quot;&gt;Africa&lt;/font&gt;" style="text;html=1;strokeColor=none;fillColor=none;align=center;verticalAlign=middle;whiteSpace=wrap;rounded=0;fontStyle=1" vertex="1" parent="1">
          <mxGeometry x="305.01" y="876" width="94.99" height="44" as="geometry" />
        </mxCell>
        <mxCell id="dHxH4tFSceXlwzy47N7y-92" value="" style="rounded=0;whiteSpace=wrap;html=1;fillColor=none;" vertex="1" parent="1">
          <mxGeometry x="315" y="920" width="120" height="60" as="geometry" />
        </mxCell>
        <mxCell id="dHxH4tFSceXlwzy47N7y-93" value="" style="endArrow=none;html=1;exitX=0;exitY=1;exitDx=0;exitDy=0;" edge="1" parent="1" source="dHxH4tFSceXlwzy47N7y-92">
          <mxGeometry width="50" height="50" relative="1" as="geometry">
            <mxPoint x="385" y="970" as="sourcePoint" />
            <mxPoint x="435" y="920" as="targetPoint" />
          </mxGeometry>
        </mxCell>
        <mxCell id="dHxH4tFSceXlwzy47N7y-94" value="" style="endArrow=none;html=1;exitX=0;exitY=0;exitDx=0;exitDy=0;entryX=1;entryY=1;entryDx=0;entryDy=0;" edge="1" parent="1" source="dHxH4tFSceXlwzy47N7y-92" target="dHxH4tFSceXlwzy47N7y-92">
          <mxGeometry width="50" height="50" relative="1" as="geometry">
            <mxPoint x="325" y="990" as="sourcePoint" />
            <mxPoint x="445" y="930" as="targetPoint" />
          </mxGeometry>
        </mxCell>
        <mxCell id="dHxH4tFSceXlwzy47N7y-95" value="" style="rounded=0;whiteSpace=wrap;html=1;fillColor=none;" vertex="1" parent="1">
          <mxGeometry x="315" y="1006" width="120" height="60" as="geometry" />
        </mxCell>
        <mxCell id="dHxH4tFSceXlwzy47N7y-96" value="" style="endArrow=none;html=1;exitX=0;exitY=1;exitDx=0;exitDy=0;" edge="1" parent="1" source="dHxH4tFSceXlwzy47N7y-95">
          <mxGeometry width="50" height="50" relative="1" as="geometry">
            <mxPoint x="385" y="1056" as="sourcePoint" />
            <mxPoint x="435" y="1006" as="targetPoint" />
          </mxGeometry>
        </mxCell>
        <mxCell id="dHxH4tFSceXlwzy47N7y-97" value="" style="endArrow=none;html=1;exitX=0;exitY=0;exitDx=0;exitDy=0;entryX=1;entryY=1;entryDx=0;entryDy=0;" edge="1" parent="1" source="dHxH4tFSceXlwzy47N7y-95" target="dHxH4tFSceXlwzy47N7y-95">
          <mxGeometry width="50" height="50" relative="1" as="geometry">
            <mxPoint x="325" y="1076" as="sourcePoint" />
            <mxPoint x="445" y="1016" as="targetPoint" />
          </mxGeometry>
        </mxCell>
        <mxCell id="dHxH4tFSceXlwzy47N7y-98" value="" style="rounded=0;whiteSpace=wrap;html=1;fillColor=none;" vertex="1" parent="1">
          <mxGeometry x="315" y="1090" width="120" height="60" as="geometry" />
        </mxCell>
        <mxCell id="dHxH4tFSceXlwzy47N7y-99" value="" style="endArrow=none;html=1;exitX=0;exitY=1;exitDx=0;exitDy=0;" edge="1" parent="1" source="dHxH4tFSceXlwzy47N7y-98">
          <mxGeometry width="50" height="50" relative="1" as="geometry">
            <mxPoint x="385" y="1140" as="sourcePoint" />
            <mxPoint x="435" y="1090" as="targetPoint" />
          </mxGeometry>
        </mxCell>
        <mxCell id="dHxH4tFSceXlwzy47N7y-100" value="" style="endArrow=none;html=1;exitX=0;exitY=0;exitDx=0;exitDy=0;entryX=1;entryY=1;entryDx=0;entryDy=0;" edge="1" parent="1" source="dHxH4tFSceXlwzy47N7y-98" target="dHxH4tFSceXlwzy47N7y-98">
          <mxGeometry width="50" height="50" relative="1" as="geometry">
            <mxPoint x="325" y="1160" as="sourcePoint" />
            <mxPoint x="445" y="1100" as="targetPoint" />
          </mxGeometry>
        </mxCell>
        <mxCell id="dHxH4tFSceXlwzy47N7y-101" value="" style="rounded=0;whiteSpace=wrap;html=1;fillColor=none;" vertex="1" parent="1">
          <mxGeometry x="465" y="920" width="120" height="60" as="geometry" />
        </mxCell>
        <mxCell id="dHxH4tFSceXlwzy47N7y-102" value="" style="endArrow=none;html=1;exitX=0;exitY=1;exitDx=0;exitDy=0;" edge="1" parent="1" source="dHxH4tFSceXlwzy47N7y-101">
          <mxGeometry width="50" height="50" relative="1" as="geometry">
            <mxPoint x="535" y="970" as="sourcePoint" />
            <mxPoint x="585" y="920" as="targetPoint" />
          </mxGeometry>
        </mxCell>
        <mxCell id="dHxH4tFSceXlwzy47N7y-103" value="" style="endArrow=none;html=1;exitX=0;exitY=0;exitDx=0;exitDy=0;entryX=1;entryY=1;entryDx=0;entryDy=0;" edge="1" parent="1" source="dHxH4tFSceXlwzy47N7y-101" target="dHxH4tFSceXlwzy47N7y-101">
          <mxGeometry width="50" height="50" relative="1" as="geometry">
            <mxPoint x="475" y="990" as="sourcePoint" />
            <mxPoint x="595" y="930" as="targetPoint" />
          </mxGeometry>
        </mxCell>
        <mxCell id="dHxH4tFSceXlwzy47N7y-104" value="" style="rounded=0;whiteSpace=wrap;html=1;fillColor=none;" vertex="1" parent="1">
          <mxGeometry x="465" y="1006" width="120" height="60" as="geometry" />
        </mxCell>
        <mxCell id="dHxH4tFSceXlwzy47N7y-105" value="" style="endArrow=none;html=1;exitX=0;exitY=1;exitDx=0;exitDy=0;" edge="1" parent="1" source="dHxH4tFSceXlwzy47N7y-104">
          <mxGeometry width="50" height="50" relative="1" as="geometry">
            <mxPoint x="535" y="1056" as="sourcePoint" />
            <mxPoint x="585" y="1006" as="targetPoint" />
          </mxGeometry>
        </mxCell>
        <mxCell id="dHxH4tFSceXlwzy47N7y-106" value="" style="endArrow=none;html=1;exitX=0;exitY=0;exitDx=0;exitDy=0;entryX=1;entryY=1;entryDx=0;entryDy=0;" edge="1" parent="1" source="dHxH4tFSceXlwzy47N7y-104" target="dHxH4tFSceXlwzy47N7y-104">
          <mxGeometry width="50" height="50" relative="1" as="geometry">
            <mxPoint x="475" y="1076" as="sourcePoint" />
            <mxPoint x="595" y="1016" as="targetPoint" />
          </mxGeometry>
        </mxCell>
        <mxCell id="dHxH4tFSceXlwzy47N7y-107" value="" style="rounded=0;whiteSpace=wrap;html=1;fillColor=none;" vertex="1" parent="1">
          <mxGeometry x="465" y="1090" width="120" height="60" as="geometry" />
        </mxCell>
        <mxCell id="dHxH4tFSceXlwzy47N7y-108" value="" style="endArrow=none;html=1;exitX=0;exitY=1;exitDx=0;exitDy=0;" edge="1" parent="1" source="dHxH4tFSceXlwzy47N7y-107">
          <mxGeometry width="50" height="50" relative="1" as="geometry">
            <mxPoint x="535" y="1140" as="sourcePoint" />
            <mxPoint x="585" y="1090" as="targetPoint" />
          </mxGeometry>
        </mxCell>
        <mxCell id="dHxH4tFSceXlwzy47N7y-109" value="" style="endArrow=none;html=1;exitX=0;exitY=0;exitDx=0;exitDy=0;entryX=1;entryY=1;entryDx=0;entryDy=0;" edge="1" parent="1" source="dHxH4tFSceXlwzy47N7y-107" target="dHxH4tFSceXlwzy47N7y-107">
          <mxGeometry width="50" height="50" relative="1" as="geometry">
            <mxPoint x="475" y="1160" as="sourcePoint" />
            <mxPoint x="595" y="1100" as="targetPoint" />
          </mxGeometry>
        </mxCell>
        <mxCell id="dHxH4tFSceXlwzy47N7y-119" value="" style="rounded=0;whiteSpace=wrap;html=1;fillColor=none;" vertex="1" parent="1">
          <mxGeometry x="610" y="921" width="120" height="60" as="geometry" />
        </mxCell>
        <mxCell id="dHxH4tFSceXlwzy47N7y-120" value="" style="endArrow=none;html=1;exitX=0;exitY=1;exitDx=0;exitDy=0;" edge="1" parent="1" source="dHxH4tFSceXlwzy47N7y-119">
          <mxGeometry width="50" height="50" relative="1" as="geometry">
            <mxPoint x="680" y="971" as="sourcePoint" />
            <mxPoint x="730" y="921" as="targetPoint" />
          </mxGeometry>
        </mxCell>
        <mxCell id="dHxH4tFSceXlwzy47N7y-121" value="" style="endArrow=none;html=1;exitX=0;exitY=0;exitDx=0;exitDy=0;entryX=1;entryY=1;entryDx=0;entryDy=0;" edge="1" parent="1" source="dHxH4tFSceXlwzy47N7y-119" target="dHxH4tFSceXlwzy47N7y-119">
          <mxGeometry width="50" height="50" relative="1" as="geometry">
            <mxPoint x="620" y="991" as="sourcePoint" />
            <mxPoint x="740" y="931" as="targetPoint" />
          </mxGeometry>
        </mxCell>
        <mxCell id="dHxH4tFSceXlwzy47N7y-122" value="" style="rounded=0;whiteSpace=wrap;html=1;fillColor=none;" vertex="1" parent="1">
          <mxGeometry x="610" y="1007" width="120" height="60" as="geometry" />
        </mxCell>
        <mxCell id="dHxH4tFSceXlwzy47N7y-123" value="" style="endArrow=none;html=1;exitX=0;exitY=1;exitDx=0;exitDy=0;" edge="1" parent="1" source="dHxH4tFSceXlwzy47N7y-122">
          <mxGeometry width="50" height="50" relative="1" as="geometry">
            <mxPoint x="680" y="1057" as="sourcePoint" />
            <mxPoint x="730" y="1007" as="targetPoint" />
          </mxGeometry>
        </mxCell>
        <mxCell id="dHxH4tFSceXlwzy47N7y-124" value="" style="endArrow=none;html=1;exitX=0;exitY=0;exitDx=0;exitDy=0;entryX=1;entryY=1;entryDx=0;entryDy=0;" edge="1" parent="1" source="dHxH4tFSceXlwzy47N7y-122" target="dHxH4tFSceXlwzy47N7y-122">
          <mxGeometry width="50" height="50" relative="1" as="geometry">
            <mxPoint x="620" y="1077" as="sourcePoint" />
            <mxPoint x="740" y="1017" as="targetPoint" />
          </mxGeometry>
        </mxCell>
        <mxCell id="dHxH4tFSceXlwzy47N7y-125" value="" style="rounded=0;whiteSpace=wrap;html=1;fillColor=none;" vertex="1" parent="1">
          <mxGeometry x="610" y="1091" width="120" height="60" as="geometry" />
        </mxCell>
        <mxCell id="dHxH4tFSceXlwzy47N7y-126" value="" style="endArrow=none;html=1;exitX=0;exitY=1;exitDx=0;exitDy=0;" edge="1" parent="1" source="dHxH4tFSceXlwzy47N7y-125">
          <mxGeometry width="50" height="50" relative="1" as="geometry">
            <mxPoint x="680" y="1141" as="sourcePoint" />
            <mxPoint x="730" y="1091" as="targetPoint" />
          </mxGeometry>
        </mxCell>
        <mxCell id="dHxH4tFSceXlwzy47N7y-127" value="" style="endArrow=none;html=1;exitX=0;exitY=0;exitDx=0;exitDy=0;entryX=1;entryY=1;entryDx=0;entryDy=0;" edge="1" parent="1" source="dHxH4tFSceXlwzy47N7y-125" target="dHxH4tFSceXlwzy47N7y-125">
          <mxGeometry width="50" height="50" relative="1" as="geometry">
            <mxPoint x="620" y="1161" as="sourcePoint" />
            <mxPoint x="740" y="1101" as="targetPoint" />
          </mxGeometry>
        </mxCell>
      </root>
    </mxGraphModel>
  </diagram>
</mxfile>
